<mxfile host="app.diagrams.net" agent="Mozilla/5.0 (Windows NT 10.0; Win64; x64) AppleWebKit/537.36 (KHTML, like Gecko) Chrome/136.0.0.0 Safari/537.36 Edg/136.0.0.0" version="27.0.4">
  <diagram name="Страница — 1" id="3yHC4iGI08JyDzR_2LPI">
    <mxGraphModel dx="752" dy="481" grid="1" gridSize="10" guides="1" tooltips="1" connect="1" arrows="1" fold="1" page="1" pageScale="1" pageWidth="827" pageHeight="1169" math="0" shadow="0">
      <root>
        <mxCell id="0" />
        <mxCell id="1" parent="0" />
        <mxCell id="maoCyfYHdOh4Vy2g6gIN-1" value="&lt;div style=&quot;background-color: rgb(255, 255, 255); color: rgb(8, 8, 8);&quot;&gt;&lt;pre style=&quot;font-family:&#39;JetBrains Mono&#39;,monospace;font-size:10.5pt;&quot;&gt;&lt;span style=&quot;color: rgb(0, 0, 0);&quot;&gt;passengers&lt;/span&gt;&lt;/pre&gt;&lt;/div&gt;" style="swimlane;fontStyle=0;childLayout=stackLayout;horizontal=1;startSize=30;horizontalStack=0;resizeParent=1;resizeParentMax=0;resizeLast=0;collapsible=1;marginBottom=0;whiteSpace=wrap;html=1;" vertex="1" parent="1">
          <mxGeometry x="530" y="64" width="230" height="90" as="geometry" />
        </mxCell>
        <mxCell id="maoCyfYHdOh4Vy2g6gIN-2" value="&lt;div style=&quot;background-color: rgb(255, 255, 255); color: rgb(8, 8, 8);&quot;&gt;&lt;pre style=&quot;&quot;&gt;&lt;font style=&quot;font-size: 15px; line-height: 100%;&quot;&gt;&lt;span style=&quot;color: rgb(0, 0, 0);&quot;&gt;id &lt;/span&gt;&lt;span style=&quot;color: rgb(135, 16, 148);&quot;&gt;serial&lt;/span&gt;&lt;/font&gt;&lt;/pre&gt;&lt;/div&gt;" style="text;strokeColor=none;fillColor=none;align=left;verticalAlign=middle;spacingLeft=4;spacingRight=4;overflow=hidden;points=[[0,0.5],[1,0.5]];portConstraint=eastwest;rotatable=0;whiteSpace=wrap;html=1;" vertex="1" parent="maoCyfYHdOh4Vy2g6gIN-1">
          <mxGeometry y="30" width="230" height="30" as="geometry" />
        </mxCell>
        <mxCell id="maoCyfYHdOh4Vy2g6gIN-3" value="&lt;font style=&quot;font-size: 14px;&quot;&gt;passenger_name varchar(255)&lt;/font&gt;" style="text;strokeColor=none;fillColor=none;align=left;verticalAlign=middle;spacingLeft=4;spacingRight=4;overflow=hidden;points=[[0,0.5],[1,0.5]];portConstraint=eastwest;rotatable=0;whiteSpace=wrap;html=1;" vertex="1" parent="maoCyfYHdOh4Vy2g6gIN-1">
          <mxGeometry y="60" width="230" height="30" as="geometry" />
        </mxCell>
        <mxCell id="maoCyfYHdOh4Vy2g6gIN-5" value="&lt;div style=&quot;background-color: rgb(255, 255, 255); color: rgb(8, 8, 8);&quot;&gt;&lt;pre style=&quot;font-family:&#39;JetBrains Mono&#39;,monospace;font-size:10.5pt;&quot;&gt;&lt;span style=&quot;color: rgb(0, 0, 0);&quot;&gt;seats&lt;/span&gt;&lt;/pre&gt;&lt;/div&gt;" style="swimlane;fontStyle=0;childLayout=stackLayout;horizontal=1;startSize=30;horizontalStack=0;resizeParent=1;resizeParentMax=0;resizeLast=0;collapsible=1;marginBottom=0;whiteSpace=wrap;html=1;" vertex="1" parent="1">
          <mxGeometry x="50" y="104" width="220" height="90" as="geometry" />
        </mxCell>
        <mxCell id="maoCyfYHdOh4Vy2g6gIN-6" value="&lt;div style=&quot;background-color: rgb(255, 255, 255); color: rgb(8, 8, 8);&quot;&gt;&lt;pre style=&quot;&quot;&gt;&lt;span style=&quot;color: rgb(0, 0, 0);&quot;&gt;&lt;font style=&quot;font-size: 15px; line-height: 100%;&quot;&gt;id serial&lt;/font&gt;&lt;/span&gt;&lt;/pre&gt;&lt;/div&gt;" style="text;strokeColor=none;fillColor=none;align=left;verticalAlign=middle;spacingLeft=4;spacingRight=4;overflow=hidden;points=[[0,0.5],[1,0.5]];portConstraint=eastwest;rotatable=0;whiteSpace=wrap;html=1;" vertex="1" parent="maoCyfYHdOh4Vy2g6gIN-5">
          <mxGeometry y="30" width="220" height="30" as="geometry" />
        </mxCell>
        <mxCell id="maoCyfYHdOh4Vy2g6gIN-7" value="&lt;div style=&quot;background-color: rgb(255, 255, 255); color: rgb(8, 8, 8);&quot;&gt;&lt;pre style=&quot;&quot;&gt;&lt;font style=&quot;font-size: 15px; line-height: 100%;&quot;&gt;&lt;span style=&quot;color: rgb(0, 0, 0);&quot;&gt;sit_number &lt;/span&gt;&lt;span style=&quot;color: rgb(135, 16, 148);&quot;&gt;varchar&lt;/span&gt;(&lt;span style=&quot;color: rgb(23, 80, 235);&quot;&gt;255&lt;/span&gt;)&lt;/font&gt;&lt;/pre&gt;&lt;/div&gt;" style="text;strokeColor=none;fillColor=none;align=left;verticalAlign=middle;spacingLeft=4;spacingRight=4;overflow=hidden;points=[[0,0.5],[1,0.5]];portConstraint=eastwest;rotatable=0;whiteSpace=wrap;html=1;" vertex="1" parent="maoCyfYHdOh4Vy2g6gIN-5">
          <mxGeometry y="60" width="220" height="30" as="geometry" />
        </mxCell>
        <mxCell id="maoCyfYHdOh4Vy2g6gIN-9" value="&lt;div style=&quot;background-color: rgb(255, 255, 255); color: rgb(8, 8, 8);&quot;&gt;&lt;pre style=&quot;font-family:&#39;JetBrains Mono&#39;,monospace;font-size:10.5pt;&quot;&gt;&lt;span style=&quot;color: rgb(0, 0, 0);&quot;&gt;seat_assignment&lt;/span&gt;&lt;/pre&gt;&lt;/div&gt;" style="swimlane;fontStyle=0;childLayout=stackLayout;horizontal=1;startSize=30;horizontalStack=0;resizeParent=1;resizeParentMax=0;resizeLast=0;collapsible=1;marginBottom=0;whiteSpace=wrap;html=1;" vertex="1" parent="1">
          <mxGeometry x="340" y="44" width="140" height="120" as="geometry" />
        </mxCell>
        <mxCell id="maoCyfYHdOh4Vy2g6gIN-10" value="&lt;div style=&quot;background-color: rgb(255, 255, 255); color: rgb(8, 8, 8);&quot;&gt;&lt;pre style=&quot;margin-bottom: 0px; padding-bottom: 0px; line-height: 0%;&quot;&gt;&lt;font style=&quot;font-size: 14px; line-height: 100%;&quot;&gt;&lt;span style=&quot;color: rgb(0, 0, 0);&quot;&gt;id &lt;/span&gt;&lt;span style=&quot;color: rgb(135, 16, 148);&quot;&gt;serial&lt;/span&gt;&lt;/font&gt;&lt;/pre&gt;&lt;/div&gt;" style="text;strokeColor=none;fillColor=none;align=left;verticalAlign=middle;spacingLeft=4;spacingRight=4;overflow=hidden;points=[[0,0.5],[1,0.5]];portConstraint=eastwest;rotatable=0;whiteSpace=wrap;html=1;" vertex="1" parent="maoCyfYHdOh4Vy2g6gIN-9">
          <mxGeometry y="30" width="140" height="30" as="geometry" />
        </mxCell>
        <mxCell id="maoCyfYHdOh4Vy2g6gIN-11" value="&lt;font style=&quot;font-size: 14px;&quot;&gt;passanger_id int&lt;/font&gt;" style="text;strokeColor=none;fillColor=none;align=left;verticalAlign=middle;spacingLeft=4;spacingRight=4;overflow=hidden;points=[[0,0.5],[1,0.5]];portConstraint=eastwest;rotatable=0;whiteSpace=wrap;html=1;" vertex="1" parent="maoCyfYHdOh4Vy2g6gIN-9">
          <mxGeometry y="60" width="140" height="30" as="geometry" />
        </mxCell>
        <mxCell id="maoCyfYHdOh4Vy2g6gIN-12" value="&lt;font style=&quot;font-size: 14px;&quot;&gt;seat_id int&lt;/font&gt;" style="text;strokeColor=none;fillColor=none;align=left;verticalAlign=middle;spacingLeft=4;spacingRight=4;overflow=hidden;points=[[0,0.5],[1,0.5]];portConstraint=eastwest;rotatable=0;whiteSpace=wrap;html=1;" vertex="1" parent="maoCyfYHdOh4Vy2g6gIN-9">
          <mxGeometry y="90" width="140" height="30" as="geometry" />
        </mxCell>
        <mxCell id="maoCyfYHdOh4Vy2g6gIN-17" style="edgeStyle=none;curved=1;rounded=0;orthogonalLoop=1;jettySize=auto;html=1;fontSize=12;startSize=8;endSize=8;" edge="1" parent="1" source="maoCyfYHdOh4Vy2g6gIN-12" target="maoCyfYHdOh4Vy2g6gIN-6">
          <mxGeometry relative="1" as="geometry" />
        </mxCell>
        <mxCell id="maoCyfYHdOh4Vy2g6gIN-18" value="" style="edgeStyle=none;curved=1;rounded=0;orthogonalLoop=1;jettySize=auto;html=1;fontSize=12;startSize=8;endSize=8;entryX=-0.014;entryY=0.78;entryDx=0;entryDy=0;entryPerimeter=0;" edge="1" parent="1" source="maoCyfYHdOh4Vy2g6gIN-11" target="maoCyfYHdOh4Vy2g6gIN-2">
          <mxGeometry relative="1" as="geometry" />
        </mxCell>
        <mxCell id="maoCyfYHdOh4Vy2g6gIN-19" value="1" style="text;html=1;align=center;verticalAlign=middle;whiteSpace=wrap;rounded=0;" vertex="1" parent="1">
          <mxGeometry x="280" y="144" width="60" height="30" as="geometry" />
        </mxCell>
        <mxCell id="maoCyfYHdOh4Vy2g6gIN-20" value="1" style="text;html=1;align=center;verticalAlign=middle;whiteSpace=wrap;rounded=0;" vertex="1" parent="1">
          <mxGeometry x="470" y="114" width="60" height="30" as="geometry" />
        </mxCell>
        <mxCell id="WSIZaRD62iFVtx7SDe12-1" value="&lt;div style=&quot;background-color: rgb(255, 255, 255); color: rgb(8, 8, 8);&quot;&gt;&lt;pre style=&quot;font-family:&#39;JetBrains Mono&#39;,monospace;font-size:10.5pt;&quot;&gt;&lt;span style=&quot;color: rgb(0, 0, 0);&quot;&gt;films&lt;/span&gt;&lt;/pre&gt;&lt;/div&gt;" style="swimlane;fontStyle=0;childLayout=stackLayout;horizontal=1;startSize=30;horizontalStack=0;resizeParent=1;resizeParentMax=0;resizeLast=0;collapsible=1;marginBottom=0;whiteSpace=wrap;html=1;" vertex="1" parent="1">
          <mxGeometry x="540" y="249" width="230" height="90" as="geometry" />
        </mxCell>
        <mxCell id="WSIZaRD62iFVtx7SDe12-2" value="&lt;div style=&quot;background-color: rgb(255, 255, 255); color: rgb(8, 8, 8);&quot;&gt;&lt;pre style=&quot;&quot;&gt;&lt;font style=&quot;font-size: 15px; line-height: 100%;&quot;&gt;&lt;span style=&quot;color: rgb(0, 0, 0);&quot;&gt;id &lt;/span&gt;&lt;span style=&quot;color: rgb(135, 16, 148);&quot;&gt;serial&lt;/span&gt;&lt;/font&gt;&lt;/pre&gt;&lt;/div&gt;" style="text;strokeColor=none;fillColor=none;align=left;verticalAlign=middle;spacingLeft=4;spacingRight=4;overflow=hidden;points=[[0,0.5],[1,0.5]];portConstraint=eastwest;rotatable=0;whiteSpace=wrap;html=1;" vertex="1" parent="WSIZaRD62iFVtx7SDe12-1">
          <mxGeometry y="30" width="230" height="30" as="geometry" />
        </mxCell>
        <mxCell id="WSIZaRD62iFVtx7SDe12-3" value="&lt;font style=&quot;font-size: 14px;&quot;&gt;title varchar(255)&lt;/font&gt;" style="text;strokeColor=none;fillColor=none;align=left;verticalAlign=middle;spacingLeft=4;spacingRight=4;overflow=hidden;points=[[0,0.5],[1,0.5]];portConstraint=eastwest;rotatable=0;whiteSpace=wrap;html=1;" vertex="1" parent="WSIZaRD62iFVtx7SDe12-1">
          <mxGeometry y="60" width="230" height="30" as="geometry" />
        </mxCell>
        <mxCell id="WSIZaRD62iFVtx7SDe12-4" value="&lt;div style=&quot;background-color: rgb(255, 255, 255); color: rgb(8, 8, 8);&quot;&gt;&lt;pre style=&quot;font-family:&#39;JetBrains Mono&#39;,monospace;font-size:10.5pt;&quot;&gt;&lt;span style=&quot;color: rgb(0, 0, 0);&quot;&gt;actors&lt;/span&gt;&lt;/pre&gt;&lt;/div&gt;" style="swimlane;fontStyle=0;childLayout=stackLayout;horizontal=1;startSize=30;horizontalStack=0;resizeParent=1;resizeParentMax=0;resizeLast=0;collapsible=1;marginBottom=0;whiteSpace=wrap;html=1;" vertex="1" parent="1">
          <mxGeometry x="60" y="290" width="220" height="90" as="geometry" />
        </mxCell>
        <mxCell id="WSIZaRD62iFVtx7SDe12-5" value="&lt;div style=&quot;background-color: rgb(255, 255, 255); color: rgb(8, 8, 8);&quot;&gt;&lt;pre style=&quot;&quot;&gt;&lt;span style=&quot;color: rgb(0, 0, 0);&quot;&gt;&lt;font style=&quot;font-size: 15px; line-height: 100%;&quot;&gt;id serial&lt;/font&gt;&lt;/span&gt;&lt;/pre&gt;&lt;/div&gt;" style="text;strokeColor=none;fillColor=none;align=left;verticalAlign=middle;spacingLeft=4;spacingRight=4;overflow=hidden;points=[[0,0.5],[1,0.5]];portConstraint=eastwest;rotatable=0;whiteSpace=wrap;html=1;" vertex="1" parent="WSIZaRD62iFVtx7SDe12-4">
          <mxGeometry y="30" width="220" height="30" as="geometry" />
        </mxCell>
        <mxCell id="WSIZaRD62iFVtx7SDe12-6" value="&lt;div style=&quot;background-color: rgb(255, 255, 255); color: rgb(8, 8, 8);&quot;&gt;&lt;pre style=&quot;&quot;&gt;&lt;font style=&quot;font-size: 15px; line-height: 100%;&quot;&gt;&lt;span style=&quot;color: rgb(0, 0, 0);&quot;&gt;actor_name &lt;/span&gt;&lt;span style=&quot;color: rgb(135, 16, 148);&quot;&gt;varchar&lt;/span&gt;(&lt;span style=&quot;color: rgb(23, 80, 235);&quot;&gt;255&lt;/span&gt;)&lt;/font&gt;&lt;/pre&gt;&lt;/div&gt;" style="text;strokeColor=none;fillColor=none;align=left;verticalAlign=middle;spacingLeft=4;spacingRight=4;overflow=hidden;points=[[0,0.5],[1,0.5]];portConstraint=eastwest;rotatable=0;whiteSpace=wrap;html=1;" vertex="1" parent="WSIZaRD62iFVtx7SDe12-4">
          <mxGeometry y="60" width="220" height="30" as="geometry" />
        </mxCell>
        <mxCell id="WSIZaRD62iFVtx7SDe12-7" value="actors_films" style="swimlane;fontStyle=0;childLayout=stackLayout;horizontal=1;startSize=30;horizontalStack=0;resizeParent=1;resizeParentMax=0;resizeLast=0;collapsible=1;marginBottom=0;whiteSpace=wrap;html=1;" vertex="1" parent="1">
          <mxGeometry x="350" y="229" width="140" height="120" as="geometry" />
        </mxCell>
        <mxCell id="WSIZaRD62iFVtx7SDe12-8" value="&lt;div style=&quot;background-color: rgb(255, 255, 255); color: rgb(8, 8, 8);&quot;&gt;&lt;pre style=&quot;margin-bottom: 0px; padding-bottom: 0px; line-height: 0%;&quot;&gt;&lt;font style=&quot;font-size: 14px; line-height: 100%;&quot;&gt;&lt;span style=&quot;color: rgb(0, 0, 0);&quot;&gt;id &lt;/span&gt;&lt;span style=&quot;color: rgb(135, 16, 148);&quot;&gt;serial&lt;/span&gt;&lt;/font&gt;&lt;/pre&gt;&lt;/div&gt;" style="text;strokeColor=none;fillColor=none;align=left;verticalAlign=middle;spacingLeft=4;spacingRight=4;overflow=hidden;points=[[0,0.5],[1,0.5]];portConstraint=eastwest;rotatable=0;whiteSpace=wrap;html=1;" vertex="1" parent="WSIZaRD62iFVtx7SDe12-7">
          <mxGeometry y="30" width="140" height="30" as="geometry" />
        </mxCell>
        <mxCell id="WSIZaRD62iFVtx7SDe12-9" value="&lt;font style=&quot;font-size: 14px;&quot;&gt;film_id int&lt;/font&gt;" style="text;strokeColor=none;fillColor=none;align=left;verticalAlign=middle;spacingLeft=4;spacingRight=4;overflow=hidden;points=[[0,0.5],[1,0.5]];portConstraint=eastwest;rotatable=0;whiteSpace=wrap;html=1;" vertex="1" parent="WSIZaRD62iFVtx7SDe12-7">
          <mxGeometry y="60" width="140" height="30" as="geometry" />
        </mxCell>
        <mxCell id="WSIZaRD62iFVtx7SDe12-10" value="&lt;font style=&quot;font-size: 14px;&quot;&gt;actor_id int&lt;/font&gt;" style="text;strokeColor=none;fillColor=none;align=left;verticalAlign=middle;spacingLeft=4;spacingRight=4;overflow=hidden;points=[[0,0.5],[1,0.5]];portConstraint=eastwest;rotatable=0;whiteSpace=wrap;html=1;" vertex="1" parent="WSIZaRD62iFVtx7SDe12-7">
          <mxGeometry y="90" width="140" height="30" as="geometry" />
        </mxCell>
        <mxCell id="WSIZaRD62iFVtx7SDe12-11" style="edgeStyle=none;curved=1;rounded=0;orthogonalLoop=1;jettySize=auto;html=1;fontSize=12;startSize=8;endSize=8;" edge="1" parent="1" source="WSIZaRD62iFVtx7SDe12-10" target="WSIZaRD62iFVtx7SDe12-5">
          <mxGeometry relative="1" as="geometry" />
        </mxCell>
        <mxCell id="WSIZaRD62iFVtx7SDe12-12" value="" style="edgeStyle=none;curved=1;rounded=0;orthogonalLoop=1;jettySize=auto;html=1;fontSize=12;startSize=8;endSize=8;entryX=-0.014;entryY=0.78;entryDx=0;entryDy=0;entryPerimeter=0;" edge="1" parent="1" source="WSIZaRD62iFVtx7SDe12-9" target="WSIZaRD62iFVtx7SDe12-2">
          <mxGeometry relative="1" as="geometry" />
        </mxCell>
        <mxCell id="WSIZaRD62iFVtx7SDe12-15" value="locals" style="swimlane;fontStyle=0;childLayout=stackLayout;horizontal=1;startSize=30;horizontalStack=0;resizeParent=1;resizeParentMax=0;resizeLast=0;collapsible=1;marginBottom=0;whiteSpace=wrap;html=1;" vertex="1" parent="1">
          <mxGeometry x="248" y="440" width="192" height="120" as="geometry" />
        </mxCell>
        <mxCell id="WSIZaRD62iFVtx7SDe12-16" value="&lt;div style=&quot;background-color: rgb(255, 255, 255); color: rgb(8, 8, 8);&quot;&gt;&lt;pre style=&quot;margin-bottom: 0px; padding-bottom: 0px; line-height: 0%;&quot;&gt;&lt;font style=&quot;font-size: 14px; line-height: 100%;&quot;&gt;&lt;span style=&quot;color: rgb(0, 0, 0);&quot;&gt;id &lt;/span&gt;&lt;span style=&quot;color: rgb(135, 16, 148);&quot;&gt;serial&lt;/span&gt;&lt;/font&gt;&lt;/pre&gt;&lt;/div&gt;" style="text;strokeColor=none;fillColor=none;align=left;verticalAlign=middle;spacingLeft=4;spacingRight=4;overflow=hidden;points=[[0,0.5],[1,0.5]];portConstraint=eastwest;rotatable=0;whiteSpace=wrap;html=1;" vertex="1" parent="WSIZaRD62iFVtx7SDe12-15">
          <mxGeometry y="30" width="192" height="30" as="geometry" />
        </mxCell>
        <mxCell id="WSIZaRD62iFVtx7SDe12-17" value="&lt;font style=&quot;font-size: 14px;&quot;&gt;house_id int&lt;/font&gt;" style="text;strokeColor=none;fillColor=none;align=left;verticalAlign=middle;spacingLeft=4;spacingRight=4;overflow=hidden;points=[[0,0.5],[1,0.5]];portConstraint=eastwest;rotatable=0;whiteSpace=wrap;html=1;" vertex="1" parent="WSIZaRD62iFVtx7SDe12-15">
          <mxGeometry y="60" width="192" height="30" as="geometry" />
        </mxCell>
        <mxCell id="WSIZaRD62iFVtx7SDe12-18" value="&lt;font style=&quot;font-size: 14px;&quot;&gt;first_name varchar(255)&lt;/font&gt;" style="text;strokeColor=none;fillColor=none;align=left;verticalAlign=middle;spacingLeft=4;spacingRight=4;overflow=hidden;points=[[0,0.5],[1,0.5]];portConstraint=eastwest;rotatable=0;whiteSpace=wrap;html=1;" vertex="1" parent="WSIZaRD62iFVtx7SDe12-15">
          <mxGeometry y="90" width="192" height="30" as="geometry" />
        </mxCell>
        <mxCell id="WSIZaRD62iFVtx7SDe12-19" value="house" style="swimlane;fontStyle=0;childLayout=stackLayout;horizontal=1;startSize=30;horizontalStack=0;resizeParent=1;resizeParentMax=0;resizeLast=0;collapsible=1;marginBottom=0;whiteSpace=wrap;html=1;" vertex="1" parent="1">
          <mxGeometry x="540" y="460" width="193" height="90" as="geometry" />
        </mxCell>
        <mxCell id="WSIZaRD62iFVtx7SDe12-20" value="&lt;div style=&quot;background-color: rgb(255, 255, 255); color: rgb(8, 8, 8);&quot;&gt;&lt;pre style=&quot;margin-bottom: 0px; padding-bottom: 0px; line-height: 0%;&quot;&gt;&lt;font style=&quot;font-size: 14px; line-height: 100%;&quot;&gt;&lt;span style=&quot;color: rgb(0, 0, 0);&quot;&gt;id &lt;/span&gt;&lt;span style=&quot;color: rgb(135, 16, 148);&quot;&gt;serial&lt;/span&gt;&lt;/font&gt;&lt;/pre&gt;&lt;/div&gt;" style="text;strokeColor=none;fillColor=none;align=left;verticalAlign=middle;spacingLeft=4;spacingRight=4;overflow=hidden;points=[[0,0.5],[1,0.5]];portConstraint=eastwest;rotatable=0;whiteSpace=wrap;html=1;" vertex="1" parent="WSIZaRD62iFVtx7SDe12-19">
          <mxGeometry y="30" width="193" height="30" as="geometry" />
        </mxCell>
        <mxCell id="WSIZaRD62iFVtx7SDe12-21" value="&lt;font style=&quot;font-size: 14px;&quot;&gt;address varchar(255)&lt;/font&gt;" style="text;strokeColor=none;fillColor=none;align=left;verticalAlign=middle;spacingLeft=4;spacingRight=4;overflow=hidden;points=[[0,0.5],[1,0.5]];portConstraint=eastwest;rotatable=0;whiteSpace=wrap;html=1;" vertex="1" parent="WSIZaRD62iFVtx7SDe12-19">
          <mxGeometry y="60" width="193" height="30" as="geometry" />
        </mxCell>
        <mxCell id="WSIZaRD62iFVtx7SDe12-23" value="" style="edgeStyle=none;curved=1;rounded=0;orthogonalLoop=1;jettySize=auto;html=1;fontSize=12;startSize=8;endSize=8;entryX=0;entryY=0.833;entryDx=0;entryDy=0;entryPerimeter=0;" edge="1" parent="1" source="WSIZaRD62iFVtx7SDe12-17" target="WSIZaRD62iFVtx7SDe12-20">
          <mxGeometry relative="1" as="geometry" />
        </mxCell>
      </root>
    </mxGraphModel>
  </diagram>
</mxfile>
